<?xml version="1.0" standalone="no"?>
<svg version="1.0" xmlns="http://www.w3.org/2000/svg"
 width="32.000000pt" height="32.000000pt" viewBox="0 0 32.000000 32.000000"
 preserveAspectRatio="xMidYMid meet">

<g transform="translate(0.000000,32.000000) scale(0.100000,-0.100000)"
fill="#000000" stroke="none">
<path d="M50 160 c0 -124 18 -134 22 -12 l3 87 35 0 c31 0 35 -3 35 -25 0 -20
-4 -24 -22 -22 -22 3 -23 0 -23 -62 0 -37 4 -66 10 -66 6 0 10 23 10 50 0 38
4 50 15 50 11 0 15 -12 15 -50 0 -27 5 -50 10 -50 6 0 10 23 10 50 0 38 4 50
15 50 11 0 15 -12 15 -51 0 -31 4 -48 10 -44 6 3 10 33 10 66 0 58 0 59 -25
53 -23 -6 -25 -3 -25 26 0 30 2 31 37 28 l36 -3 1 -82 c1 -116 20 -106 24 12
l3 95 -111 0 -110 0 0 -100z"/>
</g>
</svg>
