<?xml version="1.0" standalone="no"?>
<!DOCTYPE svg PUBLIC "-//W3C//DTD SVG 20010904//EN"
 "http://www.w3.org/TR/2001/REC-SVG-20010904/DTD/svg10.dtd">
<svg version="1.0" xmlns="http://www.w3.org/2000/svg"
 width="700.000000pt" height="700.000000pt" viewBox="0 0 700.000000 700.000000"
 preserveAspectRatio="xMidYMid meet">
<metadata>
Created by potrace 1.11, written by Peter Selinger 2001-2013
</metadata>
<g transform="translate(0.000000,700.000000) scale(0.100000,-0.100000)"
fill="#000000" stroke="none">
<path d="M164 6545 c-12 -14 -13 -55 -1 -55 5 0 4 -7 -3 -15 -10 -12 -10 -15
0 -15 10 0 10 -3 0 -15 -10 -12 -10 -15 0 -15 10 0 10 -3 0 -15 -10 -12 -10
-15 0 -15 10 0 10 -3 0 -15 -10 -12 -10 -15 0 -15 10 0 10 -3 0 -15 -10 -12
-10 -15 0 -15 10 0 10 -3 0 -15 -10 -12 -10 -15 0 -15 10 0 10 -3 0 -15 -10
-12 -10 -15 0 -15 10 0 10 -3 0 -15 -10 -12 -10 -15 0 -15 10 0 10 -3 0 -15
-7 -8 -8 -15 -3 -15 5 0 10 -7 10 -15 0 -8 -5 -15 -10 -15 -5 0 -5 -6 2 -13 8
-10 7 -17 -1 -25 -9 -9 -9 -12 2 -12 12 0 12 -2 2 -9 -8 -4 -14 -12 -14 -16 0
-4 6 -12 14 -16 11 -7 11 -9 -1 -9 -10 0 -11 -3 -2 -13 6 -8 8 -17 4 -21 -11
-10 -11 -46 0 -46 5 0 4 -7 -3 -15 -10 -12 -10 -15 0 -15 9 0 10 -3 1 -13 -8
-10 -7 -17 1 -25 9 -9 9 -12 -1 -12 -11 0 -11 -3 -1 -15 10 -12 10 -15 0 -15
-10 0 -10 -3 0 -15 10 -12 10 -15 0 -15 -10 0 -10 -3 0 -15 10 -12 10 -15 0
-15 -10 0 -10 -3 0 -15 9 -11 9 -15 1 -15 -8 0 -9 -5 -2 -18 5 -10 6 -24 1
-32 -5 -8 -4 -22 1 -32 7 -13 6 -18 -2 -18 -9 0 -9 -3 0 -14 9 -11 9 -16 0
-21 -8 -6 -7 -10 2 -16 10 -6 11 -9 2 -9 -15 0 -13 -21 2 -32 6 -5 5 -8 -4 -8
-10 0 -11 -3 -2 -13 6 -8 8 -17 4 -21 -11 -10 -11 -46 0 -46 5 0 4 -7 -3 -15
-10 -12 -10 -15 0 -15 10 0 10 -3 0 -15 -10 -12 -10 -15 0 -15 10 0 10 -3 0
-15 -10 -12 -10 -15 0 -15 10 0 10 -3 0 -15 -10 -12 -10 -15 0 -15 10 0 10 -3
0 -15 -10 -12 -10 -15 0 -15 10 0 10 -3 0 -15 -10 -12 -10 -15 0 -15 10 0 10
-3 0 -15 -10 -12 -10 -15 0 -15 10 0 10 -3 0 -15 -10 -12 -10 -15 0 -15 10 0
10 -3 0 -15 -7 -8 -8 -15 -3 -15 5 0 10 -7 10 -15 0 -8 -5 -15 -10 -15 -5 0
-5 -6 2 -13 8 -10 7 -17 -1 -25 -9 -9 -9 -12 3 -12 11 0 11 -2 1 -9 -8 -4 -14
-12 -14 -16 0 -4 6 -12 14 -16 11 -7 11 -9 -1 -9 -10 0 -11 -3 -2 -13 6 -8 8
-17 4 -21 -11 -10 -11 -46 0 -46 5 0 4 -7 -3 -15 -10 -12 -10 -15 0 -15 9 0
10 -3 1 -13 -8 -10 -7 -17 1 -25 9 -9 9 -12 -1 -12 -11 0 -11 -3 -1 -15 10
-12 10 -15 0 -15 -10 0 -10 -3 0 -15 10 -12 10 -15 0 -15 -10 0 -10 -3 0 -15
10 -12 10 -15 0 -15 -10 0 -10 -3 0 -15 9 -11 9 -15 1 -15 -8 0 -9 -5 -2 -18
5 -10 6 -24 1 -32 -5 -8 -4 -22 1 -32 7 -13 6 -18 -2 -18 -8 0 -9 -4 0 -13 8
-10 7 -17 -1 -25 -9 -9 -9 -12 2 -12 12 0 12 -2 2 -9 -17 -11 -17 -21 0 -32
11 -7 11 -9 -1 -9 -10 0 -11 -3 -2 -13 6 -8 8 -17 4 -21 -11 -10 -11 -46 0
-46 5 0 4 -7 -3 -15 -10 -12 -10 -15 0 -15 10 0 10 -3 0 -15 -10 -12 -10 -15
0 -15 10 0 10 -3 0 -15 -10 -12 -10 -15 0 -15 10 0 10 -3 0 -15 -10 -12 -10
-15 0 -15 10 0 10 -3 0 -15 -10 -12 -10 -15 0 -15 10 0 10 -3 0 -15 -10 -12
-10 -15 0 -15 10 0 10 -3 0 -15 -10 -12 -10 -15 0 -15 10 0 10 -3 0 -15 -10
-12 -10 -15 0 -15 10 0 10 -3 0 -15 -7 -8 -8 -15 -3 -15 5 0 10 -7 10 -15 0
-8 -5 -15 -10 -15 -5 0 -5 -6 2 -13 8 -10 7 -17 -1 -25 -9 -9 -9 -12 2 -12 12
0 12 -2 2 -9 -17 -11 -17 -21 0 -32 11 -7 11 -9 -1 -9 -10 0 -11 -3 -2 -13 6
-8 8 -17 4 -21 -11 -10 -11 -46 0 -46 5 0 4 -7 -3 -15 -10 -12 -10 -15 0 -15
9 0 10 -3 1 -13 -8 -10 -7 -17 1 -25 9 -9 9 -12 -1 -12 -11 0 -11 -3 -1 -15
10 -12 10 -15 0 -15 -10 0 -10 -3 0 -15 10 -12 10 -15 0 -15 -10 0 -10 -3 0
-15 10 -12 10 -15 0 -15 -10 0 -10 -3 0 -15 9 -11 9 -15 1 -15 -8 0 -9 -5 -2
-18 5 -10 6 -24 1 -32 -5 -8 -4 -22 1 -32 7 -13 6 -18 -2 -18 -9 0 -9 -3 0
-14 9 -11 9 -16 0 -21 -8 -6 -7 -10 2 -16 10 -6 11 -9 1 -9 -14 0 -12 -21 3
-32 6 -5 5 -8 -4 -8 -10 0 -11 -3 -2 -13 6 -8 8 -17 4 -21 -11 -10 -11 -46 0
-46 5 0 4 -7 -3 -15 -10 -12 -10 -15 0 -15 10 0 10 -3 0 -15 -10 -12 -10 -15
0 -15 10 0 10 -3 0 -15 -10 -12 -10 -15 0 -15 10 0 10 -3 0 -15 -10 -12 -10
-15 0 -15 10 0 10 -3 0 -15 -10 -12 -10 -15 0 -15 10 0 10 -3 0 -15 -10 -12
-10 -15 0 -15 10 0 10 -3 0 -15 -10 -12 -10 -15 0 -15 10 0 10 -3 0 -15 -10
-12 -10 -15 0 -15 10 0 10 -3 0 -15 -7 -8 -8 -15 -3 -15 5 0 10 -7 10 -15 0
-8 -5 -15 -10 -15 -5 0 -4 -6 2 -14 9 -11 9 -16 0 -21 -8 -6 -7 -10 2 -16 10
-6 11 -9 2 -9 -15 0 -13 -21 2 -32 6 -5 5 -8 -4 -8 -10 0 -11 -3 -2 -13 6 -8
8 -17 4 -21 -11 -10 -11 -46 0 -46 5 0 4 -7 -3 -15 -10 -12 -10 -15 0 -15 9 0
10 -3 1 -13 -8 -10 -7 -17 1 -25 9 -9 9 -12 -1 -12 -11 0 -11 -3 -1 -15 10
-12 10 -15 0 -15 -10 0 -10 -3 0 -15 10 -12 10 -15 0 -15 -10 0 -10 -3 0 -15
10 -12 10 -15 0 -15 -10 0 -10 -3 0 -15 9 -11 9 -15 1 -15 -8 0 -9 -5 -2 -18
5 -10 6 -24 1 -32 -5 -8 -4 -22 1 -32 7 -13 6 -18 -2 -18 -9 0 -9 -3 0 -14 9
-11 9 -16 0 -21 -8 -6 -7 -10 2 -16 10 -6 11 -9 2 -9 -15 0 -13 -21 2 -32 6
-5 5 -8 -4 -8 -10 0 -11 -3 -2 -13 6 -8 8 -17 4 -21 -11 -10 -11 -46 0 -46 5
0 4 -7 -3 -15 -10 -12 -10 -15 0 -15 10 0 10 -3 0 -15 -10 -12 -10 -15 0 -15
10 0 10 -3 0 -15 -10 -12 -10 -15 0 -15 10 0 10 -3 0 -15 -10 -12 -10 -15 0
-15 10 0 10 -3 0 -15 -10 -12 -10 -15 0 -15 10 0 10 -3 0 -15 -10 -12 -10 -15
0 -15 10 0 10 -3 0 -15 -10 -12 -10 -15 0 -15 10 0 10 -3 0 -15 -10 -12 -10
-15 0 -15 10 0 10 -3 0 -15 -7 -8 -8 -15 -3 -15 5 0 10 -7 10 -15 0 -8 -5 -15
-10 -15 -5 0 -4 -6 2 -14 9 -11 9 -16 0 -21 -8 -6 -7 -10 2 -16 10 -6 11 -9 2
-9 -15 0 -13 -21 2 -32 6 -5 5 -8 -4 -8 -10 0 -11 -3 -2 -13 6 -8 8 -17 4 -21
-11 -10 -11 -46 0 -46 5 0 4 -7 -3 -15 -10 -12 -10 -15 0 -15 9 0 10 -3 1 -13
-8 -10 -7 -17 1 -25 9 -9 9 -12 -1 -12 -11 0 -11 -3 -1 -15 10 -12 10 -15 0
-15 -10 0 -10 -3 0 -15 10 -12 10 -15 0 -15 -10 0 -10 -3 0 -15 10 -12 10 -15
0 -15 -10 0 -10 -3 0 -15 9 -11 9 -15 1 -15 -8 0 -9 -5 -2 -18 5 -10 6 -24 1
-32 -5 -8 -4 -22 1 -32 7 -13 6 -18 -2 -18 -9 0 -9 -3 0 -14 9 -11 9 -16 0
-21 -8 -6 -7 -10 2 -16 10 -6 11 -9 2 -9 -15 0 -13 -21 2 -32 6 -5 5 -8 -4 -8
-10 0 -11 -3 -2 -13 6 -8 8 -17 4 -21 -11 -10 -11 -46 0 -46 5 0 4 -7 -3 -15
-10 -12 -10 -15 0 -15 10 0 10 -3 0 -15 -10 -12 -10 -15 0 -15 10 0 10 -3 0
-15 -10 -12 -10 -15 0 -15 10 0 10 -3 0 -15 -10 -12 -10 -15 0 -15 10 0 10 -3
0 -15 -10 -12 -10 -15 0 -15 10 0 10 -3 0 -15 -10 -12 -10 -15 0 -15 10 0 10
-3 0 -15 -10 -12 -10 -15 0 -15 10 0 10 -3 0 -15 -10 -12 -10 -15 0 -15 10 0
10 -3 0 -15 -7 -8 -8 -15 -3 -15 5 0 10 -7 10 -15 0 -8 -5 -15 -10 -15 -5 0
-5 -6 2 -13 8 -10 7 -17 -1 -25 -9 -9 -9 -12 3 -12 11 0 11 -2 1 -9 -17 -11
-17 -21 0 -32 11 -7 11 -9 -1 -9 -10 0 -11 -3 -2 -13 6 -8 8 -17 4 -21 -11
-10 -11 -46 0 -46 5 0 4 -7 -3 -15 -10 -12 -10 -15 0 -15 9 0 10 -3 1 -13 -8
-10 -7 -17 1 -25 9 -9 9 -12 -1 -12 -11 0 -11 -3 -1 -15 10 -12 10 -15 0 -15
-10 0 -10 -3 0 -15 10 -12 10 -15 0 -15 -10 0 -10 -3 0 -15 10 -12 10 -15 0
-15 -10 0 -10 -3 0 -15 9 -11 9 -15 1 -15 -8 0 -9 -5 -2 -18 5 -10 6 -24 1
-32 -5 -8 -4 -22 1 -32 7 -13 6 -18 -2 -18 -8 0 -9 -4 0 -13 8 -10 7 -17 -1
-25 -9 -9 -9 -12 3 -12 11 0 11 -2 1 -9 -17 -11 -17 -21 0 -32 11 -7 11 -9 -1
-9 -10 0 -11 -3 -2 -13 6 -8 8 -17 4 -21 -11 -10 -11 -46 0 -46 5 0 4 -7 -3
-15 -10 -12 -10 -15 0 -15 10 0 10 -3 0 -15 -10 -12 -10 -15 0 -15 10 0 10 -3
0 -15 -10 -12 -10 -15 1 -15 10 0 10 -3 2 -11 -9 -9 -8 -15 2 -25 10 -11 88
-14 373 -16 l360 -3 -3 23 c-2 16 2 22 12 18 9 -4 11 -2 7 6 -11 18 -13 82 -3
95 7 7 6 14 -2 19 -8 5 -9 3 -4 -6 6 -9 4 -11 -4 -5 -9 5 -10 10 -2 18 13 13
15 31 3 23 -5 -3 -9 1 -9 9 0 8 4 12 8 9 9 -5 4 50 -6 66 -3 5 -2 10 4 10 13
0 9 52 -4 62 -6 5 -5 8 3 8 6 0 12 7 12 15 0 8 -6 15 -12 15 -8 0 -9 3 -3 8
15 11 17 32 3 32 -6 0 -3 7 8 16 10 8 14 13 8 10 -7 -3 -15 1 -18 10 -3 9 -2
12 5 9 13 -9 8 27 -6 37 -6 5 -5 8 3 8 6 0 12 7 12 15 0 8 -6 15 -12 15 -8 0
-9 3 -3 8 15 11 17 32 3 32 -6 0 -3 7 8 16 10 8 14 13 8 10 -7 -3 -15 1 -18
10 -3 8 -2 12 4 9 5 -3 7 8 5 27 -2 18 0 38 6 44 7 8 6 15 -2 20 -8 5 -9 3 -4
-6 6 -9 4 -11 -4 -5 -9 5 -10 10 -2 18 13 13 15 31 3 23 -5 -3 -9 1 -9 9 0 8
4 12 8 9 9 -5 4 50 -6 66 -3 5 -2 10 4 10 5 0 8 19 6 42 -2 24 1 48 6 54 7 8
6 15 -2 20 -8 5 -9 3 -4 -6 5 -9 4 -11 -3 -6 -8 5 -9 13 -2 25 5 10 7 21 3 24
-3 4 0 13 6 21 9 11 9 16 0 22 -8 5 -9 3 -4 -6 6 -9 4 -11 -4 -5 -9 5 -10 10
-2 18 13 13 15 31 3 23 -5 -3 -9 1 -9 9 0 8 4 12 8 9 9 -5 4 50 -6 66 -3 5 -2
10 4 10 5 0 8 19 6 42 -2 24 1 48 6 54 7 8 6 15 -2 20 -8 5 -9 3 -4 -6 6 -9 4
-11 -4 -5 -9 5 -10 10 -2 18 13 13 15 31 3 23 -5 -3 -9 1 -9 9 0 8 4 12 8 9 9
-5 4 50 -6 66 -3 5 -2 10 4 10 5 0 8 19 6 42 -2 24 1 48 6 54 7 8 6 15 -2 20
-8 5 -9 3 -4 -6 6 -9 4 -11 -4 -5 -9 5 -10 10 -2 18 13 13 15 31 3 23 -5 -3
-9 1 -9 9 0 8 4 12 8 9 9 -5 4 50 -6 66 -3 5 -2 10 4 10 5 0 8 19 6 42 -2 24
1 48 6 54 7 8 6 15 -2 20 -8 5 -9 3 -4 -6 6 -9 4 -11 -4 -5 -9 5 -10 10 -2 18
13 13 15 31 3 23 -5 -3 -9 1 -9 9 0 8 4 12 8 9 9 -5 4 50 -6 66 -3 5 -2 10 3
10 5 0 9 16 9 35 0 19 -3 32 -7 30 -4 -2 -7 2 -7 10 0 8 4 12 8 9 9 -5 4 50
-6 66 -3 5 -2 10 4 10 5 0 8 19 6 42 -2 24 1 48 6 54 7 8 6 15 -2 20 -8 5 -9
3 -4 -6 6 -9 4 -11 -4 -5 -9 5 -10 10 -2 18 13 13 15 31 3 23 -5 -3 -9 1 -9 9
0 8 4 12 8 9 9 -5 4 50 -6 66 -3 5 -2 10 4 10 5 0 8 19 6 42 -2 24 1 48 6 54
7 8 6 15 -2 20 -8 5 -9 3 -4 -6 6 -9 4 -11 -4 -5 -9 5 -10 10 -2 18 13 13 15
31 3 23 -5 -3 -9 1 -9 9 0 8 4 12 8 9 9 -5 4 50 -6 66 -3 5 -2 10 4 10 5 0 8
19 6 42 -2 24 1 48 6 54 7 8 6 15 -2 20 -8 5 -9 3 -4 -6 6 -9 4 -11 -4 -5 -9
5 -10 10 -2 18 13 13 15 31 3 23 -5 -3 -9 1 -9 9 0 8 4 12 8 9 9 -5 4 50 -6
66 -3 5 -2 10 4 10 5 0 8 19 6 42 -2 24 1 48 6 54 7 8 6 15 -2 20 -8 5 -9 3
-4 -6 5 -9 4 -11 -3 -6 -8 5 -9 13 -2 25 5 10 7 21 3 24 -3 4 0 13 6 21 9 11
9 16 0 22 -8 5 -9 3 -4 -6 6 -9 4 -11 -4 -5 -9 5 -10 10 -2 18 13 13 15 31 3
23 -5 -3 -9 1 -9 9 0 8 4 12 8 9 9 -5 4 50 -6 66 -3 5 -2 10 4 10 5 0 8 19 6
42 -2 24 1 48 6 54 7 8 6 15 -2 20 -8 5 -9 3 -4 -6 5 -9 4 -11 -4 -6 -9 6 -9
11 -1 21 8 10 7 14 -2 18 -10 4 -10 6 0 6 6 1 12 8 12 16 0 8 -6 15 -12 15 -8
0 -9 3 -3 8 15 11 17 32 3 32 -6 0 -3 7 8 16 10 8 14 13 8 10 -7 -3 -15 1 -18
10 -3 9 -2 12 5 9 13 -9 8 27 -6 37 -6 5 -5 8 3 8 6 0 12 7 12 15 0 8 -6 15
-12 15 -8 0 -9 3 -3 8 15 11 17 32 3 32 -6 0 -3 7 8 16 10 8 14 13 8 10 -7 -3
-15 1 -18 10 -3 8 -2 13 3 10 5 -3 9 5 8 19 0 14 -3 23 -7 20 -3 -2 -7 2 -7
10 0 8 4 12 8 9 9 -5 4 50 -6 66 -3 5 -2 10 4 10 5 0 8 19 6 42 -2 24 1 48 6
54 7 8 6 15 -2 20 -8 5 -9 3 -4 -6 6 -9 4 -11 -4 -5 -9 5 -10 10 -2 18 13 13
15 31 3 23 -5 -3 -9 1 -9 9 0 8 4 12 8 9 9 -5 4 50 -6 66 -3 5 -2 10 4 10 5 0
8 19 6 42 -2 24 1 48 6 54 7 8 6 15 -2 20 -8 5 -9 3 -4 -6 6 -9 4 -11 -4 -5
-9 5 -10 10 -2 18 13 13 15 31 3 23 -5 -3 -9 1 -9 9 0 8 4 12 8 9 9 -5 4 50
-6 66 -3 5 -2 10 4 10 13 0 9 52 -4 62 -6 5 -5 8 3 8 6 0 12 7 12 15 0 8 -6
15 -12 15 -8 0 -9 3 -3 8 15 11 17 32 3 32 -6 0 -3 7 8 16 10 8 14 13 8 10 -7
-3 -15 1 -18 10 -3 9 -2 12 5 9 13 -9 8 27 -6 37 -6 5 -5 8 3 8 6 0 12 7 12
15 0 8 -6 15 -12 15 -8 0 -9 3 -3 8 15 11 17 32 3 32 -6 0 -3 7 8 16 10 8 14
13 8 10 -7 -3 -15 1 -18 10 -3 8 -2 12 4 9 5 -3 7 8 5 27 -2 18 0 38 6 44 7 8
6 15 -2 20 -8 5 -9 3 -4 -6 6 -9 4 -11 -4 -5 -9 5 -10 10 -2 18 13 13 15 31 3
23 -5 -3 -9 1 -9 9 0 8 4 12 8 9 9 -5 4 50 -6 66 -3 5 -2 10 4 10 5 0 8 19 6
42 -2 24 1 48 6 54 7 8 6 15 -2 20 -8 5 -9 3 -4 -6 5 -9 4 -11 -3 -6 -8 5 -9
13 -2 25 5 10 7 21 3 24 -3 4 0 13 6 21 9 11 9 16 0 22 -8 5 -9 3 -4 -6 6 -9
4 -11 -4 -5 -9 5 -10 10 -2 18 13 13 15 31 3 23 -5 -3 -9 1 -9 9 0 8 4 12 8 9
9 -5 4 50 -6 66 -3 5 -2 10 4 10 5 0 8 19 6 42 -2 24 1 48 6 54 7 8 6 15 -2
20 -8 5 -9 3 -4 -6 6 -9 4 -11 -4 -5 -9 5 -10 10 -2 18 13 13 15 31 3 23 -5
-3 -9 1 -9 9 0 8 4 12 8 9 5 -2 6 9 4 26 -4 31 -6 30 58 33 12 1 28 -2 35 -7
6 -4 12 -4 12 1 0 10 453 9 469 -1 6 -4 11 -4 11 1 0 10 453 9 469 -1 6 -4 11
-4 11 1 0 10 453 9 469 -1 6 -4 11 -4 11 1 0 8 677 9 685 1 10 -10 12 -54 3
-70 -5 -10 -5 -18 0 -18 10 0 9 -30 -1 -47 -4 -6 -3 -15 3 -18 8 -5 8 -11 0
-20 -8 -10 -7 -16 6 -23 15 -8 15 -9 -1 -15 -10 -4 -13 -12 -8 -19 11 -18 11
-60 0 -82 -6 -12 -6 -16 1 -12 12 7 10 -32 -1 -51 -4 -6 -3 -15 3 -18 8 -5 8
-11 0 -20 -8 -10 -7 -16 6 -23 15 -8 15 -9 -1 -15 -10 -4 -13 -12 -8 -19 11
-18 11 -60 0 -82 -6 -12 -6 -16 1 -12 12 7 10 -32 -1 -51 -4 -6 -3 -15 3 -18
8 -5 8 -11 0 -20 -8 -10 -7 -16 6 -23 15 -8 15 -10 -1 -16 -14 -5 -15 -9 -5
-20 8 -11 8 -20 1 -35 -7 -13 -8 -22 -1 -26 15 -9 12 -27 -2 -19 -10 5 -10 4
-1 -6 8 -9 9 -19 3 -31 -7 -11 -7 -20 0 -24 15 -9 12 -27 -2 -19 -10 5 -10 4
-1 -6 8 -9 9 -19 3 -31 -7 -11 -7 -20 0 -24 15 -9 12 -27 -2 -19 -10 5 -10 4
-1 -6 8 -9 9 -19 3 -31 -7 -11 -7 -20 0 -24 15 -9 12 -27 -2 -19 -10 5 -10 4
-1 -6 8 -9 9 -19 3 -31 -7 -11 -7 -20 0 -24 15 -9 12 -27 -2 -19 -10 5 -10 4
-1 -6 8 -9 9 -19 3 -31 -7 -11 -7 -20 0 -24 15 -9 12 -27 -2 -19 -10 5 -10 4
-1 -6 8 -9 9 -19 3 -31 -7 -11 -7 -20 0 -24 15 -9 12 -27 -2 -19 -10 5 -10 4
-1 -6 8 -9 9 -19 3 -31 -7 -11 -7 -20 0 -24 15 -9 12 -27 -2 -19 -10 5 -10 4
-1 -6 8 -9 9 -19 3 -31 -7 -11 -7 -20 0 -24 5 -3 10 -11 10 -16 0 -6 -6 -7
-12 -3 -10 6 -10 5 -1 -7 9 -11 7 -19 -7 -37 -13 -15 -20 -18 -24 -10 -5 10
-7 10 -12 0 -5 -10 -9 -10 -22 0 -13 11 -14 11 -7 -2 7 -12 6 -13 -6 -3 -9 7
-20 9 -29 3 -9 -5 -19 -5 -27 2 -9 7 -13 7 -13 -2 0 -9 -3 -10 -13 -1 -8 6
-16 8 -20 5 -10 -10 -57 -12 -63 -2 -3 5 -11 5 -17 1 -11 -7 -33 -9 -47 -3
-19 7 -50 5 -50 -4 0 -7 -3 -7 -8 1 -5 8 -13 9 -22 3 -8 -5 -21 -5 -32 1 -13
7 -18 6 -18 -3 0 -9 -3 -9 -10 2 -9 13 -11 13 -20 0 -5 -8 -10 -10 -10 -5 0 6
-11 10 -25 10 -14 0 -25 -4 -25 -9 0 -5 -8 -2 -17 5 -15 12 -16 12 -8 -1 7
-12 6 -13 -6 -3 -20 16 -31 17 -40 1 -7 -10 -9 -10 -9 0 0 9 -5 10 -18 3 -11
-6 -24 -6 -35 0 -12 7 -17 6 -17 -3 0 -9 -3 -9 -10 2 -9 13 -11 13 -20 0 -8
-12 -10 -12 -10 -1 0 10 -3 11 -14 2 -10 -9 -16 -9 -21 -1 -5 8 -11 8 -21 -1
-11 -9 -14 -9 -14 1 0 9 -3 10 -13 1 -10 -8 -17 -7 -25 1 -9 9 -12 9 -12 -2 0
-13 -2 -13 -10 0 -9 13 -11 13 -20 0 -5 -8 -10 -10 -10 -4 0 14 -32 13 -42 -1
-5 -6 -8 -5 -8 3 0 9 -5 10 -18 3 -11 -6 -24 -6 -35 0 -12 7 -17 6 -17 -3 0
-9 -3 -9 -10 2 -9 13 -11 13 -20 0 -8 -12 -10 -12 -10 -1 0 10 -3 11 -14 2
-10 -9 -16 -9 -21 -1 -5 8 -11 8 -21 -1 -11 -9 -14 -9 -14 1 0 9 -3 10 -13 1
-10 -8 -17 -7 -25 1 -9 9 -12 9 -12 -2 0 -13 -2 -13 -10 0 -9 13 -11 13 -20 0
-5 -8 -10 -10 -10 -4 0 14 -32 13 -42 -1 -5 -6 -8 -5 -8 3 0 9 -5 10 -18 3
-11 -6 -24 -6 -35 0 -12 7 -17 6 -17 -3 0 -9 -3 -9 -10 2 -9 13 -11 13 -20 0
-8 -12 -10 -12 -10 -1 0 10 -3 11 -14 2 -10 -9 -16 -9 -21 -1 -5 8 -11 8 -21
-1 -8 -6 -14 -7 -14 -2 0 5 -7 10 -15 10 -8 0 -12 -4 -9 -9 3 -4 0 -8 -5 -8
-6 0 -11 5 -11 10 0 6 -6 5 -14 -2 -10 -9 -11 -15 -2 -20 8 -6 7 -8 -2 -8 -7
0 -10 -5 -7 -11 10 -14 10 -103 1 -117 -4 -7 -4 -12 1 -12 8 0 7 -114 -1 -137
-3 -7 0 -15 6 -19 7 -4 6 -9 -3 -15 -8 -5 -9 -9 -4 -9 10 0 10 -92 1 -117 -3
-7 0 -15 6 -19 7 -4 6 -9 -3 -15 -8 -5 -9 -9 -4 -9 6 0 10 -13 11 -30 1 -19
-3 -27 -10 -23 -6 4 -5 -1 3 -10 9 -12 10 -17 2 -17 -7 0 -9 -5 -6 -11 10 -14
10 -103 1 -117 -4 -7 -4 -12 1 -12 4 0 8 -18 8 -39 1 -25 -3 -37 -10 -33 -5 3
-4 -2 4 -11 8 -11 9 -17 2 -17 -7 0 -8 -8 -1 -26 13 -33 13 -37 -2 -28 -9 5
-9 2 1 -9 9 -12 10 -17 2 -17 -7 0 -9 -5 -6 -11 10 -14 10 -103 1 -117 -4 -7
-4 -12 1 -12 4 0 8 -18 8 -39 1 -25 -3 -37 -10 -33 -5 3 -4 -2 4 -11 9 -12 10
-17 2 -17 -7 0 -9 -5 -6 -11 10 -14 10 -103 1 -117 -4 -7 -4 -12 1 -12 4 0 8
-18 8 -39 1 -25 -3 -37 -10 -33 -5 3 -4 -2 4 -11 9 -12 10 -17 2 -17 -7 0 -9
-5 -6 -11 10 -14 10 -103 1 -117 -4 -7 -4 -12 1 -12 4 0 8 -18 8 -39 1 -25 -3
-37 -10 -33 -5 3 -4 -2 4 -11 9 -12 10 -17 2 -17 -7 0 -9 -5 -6 -11 10 -14 10
-103 1 -117 -4 -7 -4 -12 1 -12 9 0 8 -133 -1 -149 -4 -6 -4 -11 1 -11 4 0 8
-18 8 -39 1 -25 -3 -37 -10 -33 -5 3 -4 -2 4 -11 9 -12 10 -17 2 -17 -7 0 -9
-5 -6 -11 10 -14 10 -103 1 -117 -4 -7 -4 -12 1 -12 4 0 8 -18 8 -39 1 -25 -3
-37 -10 -33 -5 3 -4 -2 4 -11 9 -12 10 -17 2 -17 -7 0 -9 -5 -6 -11 10 -14 10
-103 1 -117 -4 -7 -4 -12 1 -12 8 0 7 -114 -1 -137 -3 -7 0 -15 6 -19 7 -4 6
-9 -3 -15 -8 -5 -9 -9 -4 -9 10 0 10 -92 1 -117 -3 -7 0 -15 6 -19 7 -4 6 -9
-3 -15 -8 -5 -9 -9 -4 -9 11 0 11 -112 0 -129 -3 -6 -3 -11 2 -11 4 0 8 -18 8
-39 1 -25 -3 -37 -10 -33 -5 3 -4 -2 4 -11 9 -12 10 -17 2 -17 -7 0 -9 -5 -6
-11 10 -14 10 -103 1 -117 -4 -7 -4 -12 1 -12 4 0 8 -18 8 -39 1 -25 -3 -37
-10 -33 -5 3 -4 -2 4 -11 9 -12 10 -17 2 -17 -7 0 -9 -5 -6 -11 10 -14 10
-103 1 -117 -4 -7 -4 -12 1 -12 8 0 7 -114 -1 -137 -3 -7 0 -15 6 -19 7 -4 6
-9 -3 -15 -8 -5 -9 -9 -4 -9 6 0 9 -34 8 -84 -1 -63 2 -88 13 -97 10 -8 18 -8
27 0 10 8 17 7 25 -1 9 -9 12 -9 12 1 0 7 4 9 10 6 14 -9 90 -12 90 -3 0 3 13
3 30 -2 17 -5 30 -5 30 0 0 5 13 5 30 0 17 -5 30 -5 30 0 0 5 13 5 30 0 17 -5
30 -5 30 0 0 5 13 5 30 0 17 -5 30 -5 30 0 0 5 13 5 30 0 17 -5 30 -5 30 0 0
5 13 5 30 0 17 -5 30 -5 30 0 0 5 13 5 30 0 17 -5 30 -5 30 0 0 5 13 5 30 0
17 -5 30 -5 30 0 0 5 13 5 30 0 18 -5 30 -5 30 1 0 5 5 8 12 6 7 -1 12 3 13 8
0 6 4 16 9 24 6 10 5 12 -3 7 -14 -9 -11 30 3 53 6 9 5 12 -1 8 -6 -4 -11 4
-11 18 0 14 6 25 12 25 7 0 8 3 1 8 -16 10 -17 54 -2 45 9 -5 9 -3 1 8 -15 20
-16 61 -1 52 7 -4 6 0 -2 10 -11 14 -11 20 0 34 10 11 10 14 1 9 -14 -8 -12
19 2 43 6 9 5 12 -2 7 -14 -8 -12 34 2 53 8 11 8 13 0 8 -7 -4 -12 2 -11 18 0
14 5 25 11 25 7 0 8 3 1 8 -16 10 -17 54 -2 45 9 -5 9 -3 1 8 -15 20 -16 61
-1 52 7 -4 6 0 -2 10 -11 14 -11 20 0 34 10 11 10 14 1 9 -14 -8 -12 19 2 43
6 9 5 12 -2 7 -14 -8 -12 34 2 53 8 11 8 13 0 8 -7 -4 -11 2 -11 18 0 14 5 25
11 25 7 0 8 3 1 8 -16 10 -17 54 -2 45 9 -5 9 -3 1 8 -15 20 -16 61 -1 52 7
-4 6 0 -2 10 -11 14 -11 20 0 34 10 11 10 14 1 9 -14 -8 -12 19 2 43 6 9 5 12
-2 7 -14 -8 -12 34 2 53 8 11 8 13 0 8 -7 -4 -11 2 -11 18 0 14 5 25 11 25 7
0 8 3 1 8 -16 10 -17 54 -2 45 9 -5 9 -3 1 8 -15 20 -16 61 -1 52 7 -4 6 0 -2
10 -11 14 -11 20 0 34 8 9 9 14 3 11 -6 -4 -10 9 -10 37 -1 27 3 42 9 38 6 -4
7 -1 1 8 -14 24 -16 51 -2 43 10 -6 10 -5 1 7 -13 16 -12 36 1 58 7 11 5 13
-9 7 -14 -5 -16 -4 -7 7 7 8 9 17 5 20 -3 4 -1 13 5 20 7 8 8 17 4 21 -12 13
-11 106 2 106 7 0 7 3 1 8 -15 11 -18 75 -4 66 8 -5 9 -3 3 7 -13 21 -13 82 0
98 8 11 8 13 0 8 -7 -4 -11 2 -11 18 0 14 5 25 11 25 8 0 8 2 0 8 -14 9 -14
43 0 61 8 11 8 13 0 8 -7 -4 -12 2 -11 18 0 14 5 25 11 25 8 0 8 2 0 8 -14 9
-14 43 0 61 8 11 8 13 0 8 -7 -4 -11 5 -12 23 0 17 5 30 11 30 8 0 8 3 2 8
-15 11 -18 75 -4 66 8 -5 9 -3 3 7 -12 20 -14 110 -1 102 6 -4 7 -1 1 8 -14
24 -16 51 -2 43 10 -6 10 -5 1 7 -13 16 -12 36 1 58 7 11 5 13 -9 7 -14 -5
-16 -4 -7 7 7 8 9 17 5 20 -3 4 -1 13 5 20 7 8 8 17 4 21 -12 13 -11 106 2
106 7 0 7 3 1 8 -15 11 -18 75 -4 66 8 -5 9 -3 3 7 -13 21 -13 82 0 98 8 11 8
13 0 8 -7 -4 -12 2 -11 18 0 14 5 25 11 25 8 0 8 2 0 8 -6 4 -11 16 -11 27 0
11 5 23 11 27 8 6 8 8 0 8 -6 0 -11 11 -11 25 0 16 4 22 11 18 6 -4 5 1 -3 10
-15 18 -16 18 39 21 14 1 31 -3 38 -8 6 -4 12 -5 12 0 0 11 371 11 388 0 7 -4
12 -4 12 1 0 9 173 9 188 -1 6 -3 12 -2 14 3 1 5 15 7 31 4 21 -4 25 -8 17
-18 -8 -10 -7 -16 6 -23 15 -8 15 -9 -1 -15 -10 -4 -13 -12 -8 -19 11 -18 11
-60 0 -82 -6 -12 -6 -16 1 -12 12 7 10 -32 -1 -51 -4 -6 -3 -15 3 -18 8 -5 8
-11 0 -20 -8 -10 -7 -16 6 -23 15 -8 15 -9 -1 -15 -10 -4 -13 -12 -8 -19 11
-18 11 -60 0 -82 -6 -12 -6 -16 1 -12 12 7 10 -32 -1 -51 -4 -6 -3 -15 3 -18
8 -5 8 -11 0 -20 -8 -10 -7 -16 6 -23 15 -8 15 -9 -1 -15 -10 -4 -13 -12 -8
-19 11 -18 11 -60 0 -82 -6 -12 -6 -16 1 -12 12 7 10 -32 -1 -51 -4 -6 -3 -15
3 -18 8 -5 8 -11 0 -20 -8 -10 -7 -16 6 -23 15 -8 15 -9 -1 -15 -10 -4 -13
-12 -8 -19 11 -18 11 -60 0 -82 -6 -12 -6 -16 1 -12 12 7 10 -32 -1 -51 -4 -6
-3 -15 3 -18 8 -5 8 -11 0 -20 -8 -10 -7 -16 6 -23 15 -8 15 -10 -1 -16 -14
-5 -15 -9 -5 -20 8 -11 8 -20 1 -35 -7 -13 -8 -22 -1 -26 15 -9 12 -27 -2 -19
-10 5 -10 4 -1 -6 8 -9 9 -19 3 -31 -7 -11 -7 -20 0 -24 15 -9 12 -27 -2 -19
-10 5 -10 4 -1 -6 8 -9 9 -19 3 -31 -7 -11 -7 -20 0 -24 15 -9 12 -27 -2 -19
-10 5 -10 4 -1 -6 8 -9 9 -19 3 -31 -7 -11 -7 -20 0 -24 15 -9 12 -27 -2 -19
-10 5 -10 4 -1 -6 8 -9 9 -19 3 -31 -7 -11 -7 -20 0 -24 15 -9 12 -27 -2 -19
-10 5 -10 4 -1 -6 8 -9 9 -19 3 -31 -7 -11 -7 -20 0 -24 15 -9 12 -27 -2 -19
-10 5 -10 4 -1 -6 8 -9 9 -19 3 -31 -7 -11 -7 -20 0 -24 15 -9 12 -27 -2 -19
-10 5 -10 4 -1 -6 8 -9 9 -19 3 -31 -7 -11 -7 -20 0 -24 5 -3 10 -11 10 -16 0
-6 -4 -7 -10 -4 -6 4 -6 -4 1 -22 11 -31 11 -30 -3 -57 -7 -12 -7 -16 0 -12
12 7 10 -32 -1 -51 -4 -6 -3 -15 3 -18 8 -5 8 -11 0 -20 -8 -10 -7 -16 6 -23
15 -8 15 -9 -1 -15 -10 -4 -13 -12 -8 -19 11 -18 11 -60 0 -82 -6 -12 -6 -16
1 -12 12 7 10 -32 -1 -51 -4 -6 -3 -15 3 -18 8 -5 8 -11 0 -20 -8 -10 -7 -16
6 -23 15 -8 15 -9 -1 -15 -10 -4 -13 -12 -8 -19 10 -18 11 -59 1 -80 -5 -10
-4 -19 2 -23 5 -3 10 -11 10 -16 0 -6 -4 -7 -10 -4 -6 3 -7 -1 -4 -10 11 -27
11 -89 1 -109 -6 -12 -6 -16 1 -12 12 7 10 -32 -1 -51 -4 -6 -3 -15 3 -18 8
-5 8 -11 0 -20 -8 -10 -7 -16 6 -23 15 -8 15 -9 -1 -15 -10 -4 -13 -12 -8 -19
11 -18 11 -60 0 -82 -6 -12 -6 -16 1 -12 12 7 10 -32 -1 -51 -4 -6 -3 -15 3
-18 8 -5 8 -11 0 -20 -8 -10 -7 -16 6 -23 15 -8 15 -9 -1 -15 -10 -4 -13 -12
-8 -19 11 -18 11 -60 0 -82 -7 -14 -6 -16 4 -11 9 6 10 3 5 -11 -5 -10 -8 -26
-7 -34 1 -8 1 -23 2 -33 0 -9 4 -15 9 -12 4 3 11 -1 13 -7 4 -9 6 -9 6 -1 1 8
10 9 31 3 19 -5 28 -5 25 1 -4 5 4 5 19 -1 15 -5 26 -6 26 0 0 5 12 5 30 0 17
-5 30 -5 30 0 0 5 13 5 30 0 17 -5 30 -5 30 0 0 5 13 5 30 0 17 -5 30 -5 30 0
0 5 13 5 30 0 17 -5 30 -5 30 0 0 5 13 5 30 0 17 -5 30 -5 30 0 0 5 13 5 30 0
17 -5 30 -5 30 0 0 5 13 5 30 0 17 -5 30 -5 30 0 0 5 13 5 30 0 17 -5 30 -5
30 0 0 5 13 5 30 0 16 -5 30 -5 30 -1 0 3 9 7 20 7 11 0 20 -5 20 -11 0 -5 5
-3 10 5 9 13 10 13 10 0 0 -11 2 -12 8 -2 5 7 8 291 8 632 -1 407 2 620 9 620
7 0 7 3 0 8 -7 4 -10 304 -10 865 0 850 0 857 20 858 11 1 34 2 50 3 17 1 36
-3 43 -8 6 -4 12 -5 12 0 0 11 291 11 308 0 7 -4 12 -4 12 1 0 4 62 7 137 6
76 -1 143 3 148 7 10 8 15 -6 17 -50 0 -8 6 -21 12 -29 8 -11 8 -13 0 -8 -14
8 -14 -60 0 -82 6 -9 5 -12 -1 -8 -12 8 -12 -61 0 -80 4 -6 3 -14 -2 -17 -5
-3 -9 -22 -9 -41 0 -24 4 -33 12 -28 8 5 8 3 0 -8 -16 -20 -16 -82 -1 -72 9 5
9 3 1 -8 -16 -20 -16 -82 -1 -72 9 5 9 3 1 -8 -14 -16 -13 -157 0 -178 6 -9 5
-12 -1 -8 -13 8 -12 -92 1 -112 6 -9 5 -12 -1 -8 -12 8 -12 -61 0 -80 4 -6 3
-14 -2 -17 -5 -3 -9 -22 -9 -41 0 -24 4 -33 12 -28 8 5 8 3 0 -8 -16 -20 -16
-82 -1 -72 9 5 9 3 1 -8 -16 -20 -16 -82 -1 -72 9 5 9 3 1 -8 -14 -16 -13
-157 0 -178 6 -9 5 -12 -1 -8 -13 8 -12 -92 1 -112 6 -9 5 -12 -1 -8 -12 8
-12 -61 0 -80 4 -6 3 -14 -2 -17 -5 -3 -9 -22 -9 -41 0 -24 4 -33 12 -28 8 5
8 3 0 -8 -15 -18 -15 -149 0 -149 8 0 8 -2 0 -8 -14 -9 -15 -154 -1 -145 6 4
7 1 1 -8 -13 -21 -13 -159 0 -159 8 0 8 -2 0 -8 -14 -9 -15 -154 -1 -145 6 4
7 1 1 -8 -13 -21 -13 -240 0 -232 7 5 7 2 0 -8 -6 -8 -11 -23 -11 -34 0 -11 5
-26 11 -34 8 -10 8 -13 0 -8 -7 4 -11 -11 -11 -45 -1 -33 2 -46 8 -37 6 9 9
10 9 2 0 -6 -4 -14 -9 -17 -5 -3 -9 -22 -9 -41 0 -24 4 -33 12 -28 8 5 8 3 0
-8 -14 -16 -13 -157 0 -178 6 -9 6 -12 -2 -7 -7 4 -10 -3 -9 -21 l2 -28 375 0
374 0 1 57 c0 32 -3 58 -8 58 -5 0 -4 7 4 16 10 13 10 17 0 24 -9 5 -10 10 -2
14 7 5 7 15 1 32 -6 15 -6 23 -1 19 6 -3 9 4 8 15 -1 11 -5 20 -10 20 -5 0 -5
6 1 13 15 17 15 19 3 50 -6 16 -7 26 -2 22 6 -3 9 4 8 15 -1 11 -5 20 -10 20
-5 0 -5 6 2 13 8 10 7 17 -2 27 -9 9 -9 11 0 6 8 -4 11 1 10 14 -1 11 -5 20
-10 20 -5 0 -5 6 2 13 8 10 7 17 -2 27 -9 9 -9 11 0 6 8 -4 11 1 10 14 -1 11
-5 20 -10 20 -5 0 -5 6 2 13 8 10 7 17 -2 27 -9 9 -9 11 0 6 8 -4 11 1 10 14
-1 11 -5 20 -10 20 -5 0 -5 6 1 13 12 14 12 24 1 55 -6 14 -5 21 0 17 6 -3 9
4 8 15 -1 11 -5 20 -10 20 -4 0 -5 6 0 12 11 18 11 88 0 88 -5 0 -4 7 4 16 10
13 10 17 0 24 -9 5 -10 10 -2 14 7 5 7 15 1 32 -6 15 -6 23 -1 19 6 -3 9 4 8
15 -1 11 -5 20 -10 20 -4 0 -5 6 0 13 11 17 11 87 0 87 -5 0 -4 7 4 16 10 13
10 17 0 24 -9 5 -10 10 -2 14 7 5 7 15 1 32 -6 15 -6 23 -1 19 6 -3 9 4 8 15
-1 11 -5 20 -10 20 -4 0 -5 6 0 13 11 17 11 87 0 87 -5 0 -4 7 4 16 10 13 10
17 0 24 -9 5 -10 10 -2 14 7 5 7 15 1 32 -6 15 -6 23 -1 19 6 -3 9 4 8 15 -1
11 -5 20 -10 20 -4 0 -5 6 0 13 11 17 11 87 0 87 -5 0 -4 7 4 16 10 13 10 17
-2 25 -8 5 -9 9 -3 9 6 0 11 7 11 15 0 8 -5 15 -10 15 -5 0 -4 7 4 16 10 13
10 17 0 24 -9 5 -10 10 -2 14 7 5 7 15 1 32 -6 15 -6 23 -1 19 6 -3 9 4 8 15
-1 11 -5 20 -10 20 -4 0 -5 6 0 13 11 17 11 87 0 87 -5 0 -4 7 4 16 10 13 10
17 -2 25 -8 5 -9 9 -3 9 6 0 11 7 11 15 0 8 -5 15 -10 15 -5 0 -4 7 4 16 10
13 10 17 0 24 -9 5 -10 10 -2 14 7 5 7 15 1 32 -6 15 -6 23 -1 19 6 -3 9 4 8
15 -1 11 -5 20 -10 20 -4 0 -5 6 0 12 11 18 11 88 0 88 -5 0 -4 7 4 16 10 13
10 17 -2 25 -8 5 -9 9 -3 9 6 0 11 7 11 15 0 8 -5 15 -10 15 -5 0 -4 7 4 16
10 13 10 17 0 24 -9 5 -10 10 -2 14 7 5 7 15 1 32 -6 15 -6 23 -1 19 6 -3 9 4
8 15 -1 11 -5 20 -10 20 -4 0 -5 6 0 13 11 17 11 87 0 87 -5 0 -4 7 4 16 10
13 10 17 -2 25 -8 5 -9 9 -3 9 6 0 11 7 11 15 0 8 -5 15 -10 15 -5 0 -4 7 4
16 10 13 10 17 0 24 -9 5 -10 10 -2 14 7 5 7 15 1 32 -6 15 -6 23 -1 19 6 -3
9 4 8 15 -1 11 -5 20 -10 20 -4 0 -5 6 0 13 11 17 11 87 0 87 -5 0 -4 7 4 16
10 13 10 17 -2 25 -8 5 -9 9 -3 9 6 0 11 7 11 15 0 8 -5 15 -10 15 -5 0 -4 7
4 16 10 13 10 17 0 24 -9 5 -10 10 -2 14 7 5 7 15 1 32 -6 15 -6 23 -1 19 6
-3 9 4 8 15 -1 11 -5 20 -10 20 -4 0 -5 6 0 13 11 17 11 87 0 87 -5 0 -4 7 4
16 10 13 10 17 -2 25 -8 5 -9 9 -3 9 6 0 11 7 11 15 0 8 -5 15 -10 15 -5 0 -4
7 4 16 10 13 10 17 0 24 -9 5 -10 10 -2 14 7 5 7 15 1 32 -6 15 -6 23 -1 19 6
-3 9 4 8 15 -1 11 -5 20 -10 20 -4 0 -5 6 0 13 11 17 11 87 0 87 -5 0 -4 7 4
16 10 13 10 17 -2 25 -8 5 -9 9 -3 9 6 0 11 7 11 15 0 8 -5 15 -10 15 -5 0 -4
7 4 16 10 13 10 17 0 24 -9 5 -10 10 -2 14 7 5 7 15 1 32 -6 14 -6 23 -1 20
10 -7 8 45 -3 62 -4 7 -14 9 -24 4 -21 -9 -43 -9 -59 1 -6 4 -14 3 -17 -1 -4
-7 -51 -9 -51 -2 0 1 -10 3 -22 4 -13 2 -23 -2 -23 -8 0 -7 -3 -7 -8 1 -5 8
-13 9 -22 3 -8 -5 -21 -5 -32 1 -13 7 -18 6 -18 -3 0 -9 -3 -9 -10 2 -9 13
-11 13 -20 0 -5 -8 -10 -10 -10 -5 0 6 -11 10 -25 10 -14 0 -25 -4 -25 -9 0
-5 -8 -2 -17 5 -15 12 -16 12 -8 -1 7 -12 6 -13 -6 -3 -9 7 -20 9 -29 3 -9 -5
-19 -5 -27 2 -9 7 -13 7 -13 -2 0 -9 -3 -10 -13 -1 -8 6 -16 8 -20 5 -10 -10
-57 -12 -63 -2 -3 5 -11 5 -17 1 -11 -7 -33 -9 -47 -3 -19 7 -50 5 -50 -4 0
-7 -3 -7 -8 1 -5 8 -13 9 -22 3 -8 -5 -21 -5 -32 1 -13 7 -18 6 -18 -3 0 -9
-3 -9 -10 2 -9 13 -11 13 -20 0 -5 -8 -10 -10 -10 -5 0 6 -11 10 -25 10 -14 0
-25 -4 -25 -9 0 -5 -8 -2 -17 5 -15 12 -16 12 -8 -1 7 -12 6 -13 -6 -3 -9 7
-20 9 -29 3 -9 -5 -19 -5 -27 2 -9 7 -13 7 -13 -2 0 -9 -3 -10 -13 -1 -8 6
-16 8 -20 5 -10 -10 -57 -12 -63 -2 -3 5 -11 5 -17 1 -11 -7 -33 -9 -47 -3
-19 7 -50 5 -50 -4 0 -7 -3 -7 -8 1 -5 8 -13 9 -22 3 -8 -5 -21 -5 -32 1 -13
7 -18 6 -18 -3 0 -9 -3 -9 -10 2 -9 13 -11 13 -20 0 -5 -8 -10 -10 -10 -5 0 6
-11 10 -25 10 -14 0 -25 -4 -25 -9 0 -5 -8 -2 -17 5 -15 12 -16 12 -8 -1 7
-13 6 -13 -7 -2 -11 9 -18 10 -23 2 -4 -7 -12 -7 -26 0 -14 8 -19 7 -19 -1 0
-8 -4 -9 -13 0 -10 7 -17 7 -24 0 -8 -8 -13 -7 -19 2 -10 17 -11 1479 -1 1479
5 0 6 3 4 8 -6 9 446 7 462 -2 6 -4 11 -4 11 1 0 10 453 9 469 -1 6 -4 11 -4
11 1 0 10 453 9 469 -1 6 -4 11 -4 11 1 0 10 453 9 469 -1 6 -4 11 -4 11 1 0
6 131 8 290 4 l26 -1 -1 -2567 c0 -1481 3 -2576 8 -2587 6 -12 5 -16 -1 -12
-7 4 -10 -4 -8 -21 l3 -28 142 -5 c77 -3 141 -2 141 2 0 4 14 3 30 -2 17 -5
30 -5 30 0 0 5 13 5 30 0 17 -5 30 -5 30 0 0 5 13 5 30 0 17 -5 30 -5 30 0 0
5 13 5 30 0 17 -5 30 -5 30 0 0 5 13 5 30 0 17 -5 30 -5 30 0 0 5 13 5 30 0
17 -5 30 -5 30 0 0 5 13 5 30 0 16 -5 30 -5 30 -1 0 4 10 7 22 7 18 -1 22 5
23 29 0 17 4 36 9 44 6 9 5 12 -1 8 -6 -4 -10 18 -9 58 0 38 4 61 9 58 6 -4 7
-1 1 8 -12 20 -13 240 -1 232 6 -4 7 -1 1 8 -12 21 -14 120 -1 112 6 -4 7 -1
1 8 -13 20 -14 120 -1 112 6 -4 7 -1 1 8 -13 20 -14 90 -1 82 6 -4 7 -1 1 8
-13 20 -14 150 -1 142 6 -4 7 -1 1 8 -13 21 -13 92 0 108 7 10 7 13 0 8 -7 -4
-11 15 -10 58 0 38 4 61 9 58 6 -4 7 -1 1 8 -13 21 -13 251 0 268 8 11 8 13 0
8 -14 -8 -14 91 0 112 6 9 5 12 -1 8 -12 -8 -12 173 1 192 6 9 5 12 -1 8 -13
-8 -12 92 1 112 6 9 5 12 -1 8 -13 -8 -12 92 1 112 6 9 5 12 -1 8 -6 -4 -10
18 -9 58 0 38 4 61 9 58 6 -4 7 -1 1 8 -12 20 -13 240 -1 232 6 -4 7 -1 1 8
-12 21 -14 120 -1 112 6 -4 7 -1 1 8 -13 20 -14 120 -1 112 6 -4 7 -1 1 8 -13
20 -14 90 -1 82 6 -4 7 -1 1 8 -13 20 -14 150 -1 142 6 -4 7 -1 1 8 -13 21
-13 92 0 108 7 10 7 13 0 8 -7 -4 -11 15 -10 58 0 38 4 61 9 58 6 -4 7 -1 1 8
-13 21 -13 251 0 268 8 11 8 13 0 8 -14 -8 -14 91 0 112 6 9 5 12 -1 8 -12 -8
-12 173 1 192 6 9 5 12 -1 8 -13 -8 -12 92 1 112 6 9 5 12 -1 8 -12 -8 -12
173 1 192 6 9 5 12 -1 8 -13 -8 -12 92 1 112 6 9 5 12 -1 8 -12 -8 -12 173 1
192 6 9 5 12 -1 8 -13 -8 -12 92 1 112 6 9 5 12 -1 8 -13 -8 -12 92 1 112 6 9
5 12 -1 8 -6 -4 -10 18 -9 58 0 38 4 61 9 58 6 -4 7 -1 1 8 -12 20 -13 240 -1
232 6 -4 7 -1 1 8 -12 21 -14 120 -1 112 6 -4 7 -1 1 8 -13 20 -14 120 -1 112
6 -4 7 -1 1 8 -13 20 -14 90 -1 82 6 -4 7 -1 1 8 -13 20 -14 150 -1 142 6 -4
7 -1 1 8 -13 21 -13 92 0 108 7 10 7 13 0 8 -7 -4 -11 15 -10 58 0 38 4 61 9
58 6 -4 7 -1 1 8 -12 20 -13 230 -1 222 6 -4 7 -1 1 8 -5 8 -10 25 -10 39 -1
14 -2 30 -3 35 -1 14 -6695 14 -6707 0z"/>
</g>
</svg>
