<svg preserveAspectRatio="xMidYMid meet" data-bbox="873 187 2535 318" viewBox="0 0 4233 847" height="75px" width="347px" xmlns="http://www.w3.org/2000/svg" shape-rendering="geometricPrecision" text-rendering="geometricPrecision" image-rendering="optimizeQuality" fill-rule="evenodd" clip-rule="evenodd" data-type="ugc" role="img" aria-labelledby="svgcid-712xx8j4gcxc"><title id="svgcid-712xx8j4gcxc"></title>
    <g>
        <path d="M873 500V305h20l69 119 69-119h19v195h-21V347l-67 116-68-116v153h-21zm513-18c19 0 35-8 47-23 13-15 19-34 19-56 0-23-6-43-19-57-12-15-28-23-47-23s-35 8-48 23c-12 15-18 34-18 57 0 22 6 41 18 56 13 15 29 23 48 23zm0 23c-26 0-47-10-63-29-17-19-25-44-25-73 0-30 8-55 25-74s38-29 63-29 46 10 63 29c17 20 25 44 25 74 0 29-8 54-25 73-16 19-38 29-63 29zm311-5l115-173h-105v-22h143l-112 172h112v23h-153zm471-173h-51v150h51c21 0 38-7 50-20 12-14 18-32 18-55 0-22-6-41-19-54-12-14-28-21-49-21zm0-22c27 0 49 9 65 27s25 42 25 71-8 52-25 70c-16 18-37 27-65 27h-72V305h72zm310 195l114-173h-105v-22h144l-112 172h111v23h-152zm401 0V305h140v22h-119v57h68v23h-68v70h119v23h-140zm387 0V305h11l110 145V305h21v195h-11l-110-146v146h-21z" fill="#1c1b17" stroke-width="5.01" stroke="#1c1b17"></path>
        <path fill="none" stroke="#1c1b17" stroke-width="22.24" d="M3266 187h142"></path>
        <path fill-rule="nonzero" fill="#1c1b17" d="M2630 414h-143v-22h143v22z"></path>
        <path fill="none" stroke="#1c1b17" stroke-width="22.24" d="M1707 402h143"></path>
    </g>
</svg>